<svg xmlns="http://www.w3.org/2000/svg" viewBox="0 0 20 20">
    <path
        d=" M 10 3.26 C 5 3.26 0 4.8 0 7.8 C 0 10.715 5 12.26 10 12.26 C 15 12.26 20 10.715 20 7.8 C 20 4.8 15 3.26 10 3.26 Z  M 5 13.2 L 5 16.2 C 6.237 16.5 7.6 16.7 9 16.74 L 9 13.74 C 7.652 13.7 6.313 13.5 5 13.2 L 5 13.2 Z  M 11 13.739 L 11 16.739 C 12.348 16.7 13.7 16.5 15 16.198 L 15 13.198 C 13.7 13.5 12.348 13.7 11 13.738 L 11 13.739 Z  M 17 12.6 L 17 15.6 C 18.8 15 20 13.7 20 12.26 L 20 9.26 C 20 10.7 18.8 11.8 17 12.6 Z  M 3 15.6 L 3 12.6 C 1.2 11.8 0 10.7 0 9.26 L 0 12.26 C 0 13.7 1.2 15 3 15.6 Z "
        fill="rgb(150, 0, 0)" />
</svg>